<svg data-v-0dd9719b="" version="1.0" xmlns="http://www.w3.org/2000/svg" xmlns:xlink="http://www.w3.org/1999/xlink" width="100%" height="100%" viewBox="0 0 340.000000 250.000000" preserveAspectRatio="xMidYMid meet" color-interpolation-filters="sRGB" style="margin: auto;"> <rect data-v-0dd9719b="" x="0" y="0" width="100%" height="100%" fill="#fff" fill-opacity="1" class="background"></rect> <rect data-v-0dd9719b="" x="0" y="0" width="100%" height="100%" fill="url(#watermark)" fill-opacity="1" class="watermarklayer"></rect> <g data-v-0dd9719b="" fill="#00a5a9" class="icon-text-wrapper icon-svg-group iconsvg" transform="translate(47.974998474121094,96.29874801635742)"><g class="iconsvg-imagesvg" transform="translate(0,0.6848163604736328)"><g><rect fill="#00a5a9" fill-opacity="0" stroke-width="2" x="0" y="0" width="60" height="56.032872618602916" class="image-rect"></rect> <svg x="0" y="0" width="60" height="56.032872618602916" filtersec="colorsb6337254720" class="image-svg-svg primary" style="overflow: visible;"><svg xmlns="http://www.w3.org/2000/svg" viewBox="13.677627563476562 89.5285873413086 1476.3446044921875 1378.7261962890625"><g fill-rule="evenodd" clip-rule="evenodd"><path fill="#F08D00" d="M358.406 181.943C550.705 70.924 774.3 63.149 965.028 141.368l-57.756 33.342c-167.65-56.601-357.884-43.599-523.129 51.804-305.012 176.1-409.561 566.267-233.459 871.279 176.096 305.007 566.264 409.55 871.276 233.453 185.105-106.868 296.369-292.59 315.869-490.267l53.858-31.089c-10.432 226.913-132.717 443.941-343.995 565.929-329.625 190.309-751.274 77.33-941.577-252.3-190.313-329.618-77.328-751.268 252.291-941.576zm699.421 5.909l-51.649 29.82a637.01 637.01 0 0 1 84.719 54.722l47.961-27.691a686.894 686.894 0 0 0-81.031-56.851zm147.339 118.633l-45.885 26.491c21.022 21.533 40.692 44.789 58.827 69.669l44.813-25.873a687.636 687.636 0 0 0-57.755-70.287zm103.789 143.775l-44.605 25.751a639.248 639.248 0 0 1 37.178 82.169l45.185-26.085a690.8 690.8 0 0 0-37.758-81.835zm64.195 166.634l-46.629 26.921a633.982 633.982 0 0 1 13.22 95.999l49.409-28.525a685.037 685.037 0 0 0-16-94.395z"></path><path fill="#00A5A9" d="M413.555 277.454c69.461-40.106 143.791-64.161 218.694-73.335-29.125 38.673-53.036 80.618-71.49 124.693L169.17 554.897c47.212-112.791 130.338-211.603 244.385-277.443zm630.931-181.966L540.023 386.74 230.588 565.392l-82.155 47.433c-16.611 55.521-24.915 113.473-24.395 171.828l391.585-226.088a581.895 581.895 0 0 1 2.5-59.114L1153.08 132.86a582.853 582.853 0 0 0-108.594-37.372zm198.664 89.001L517.768 603.288 318.795 718.167 126.178 829.375a574.869 574.869 0 0 0 30.16 140.325l391.59-226.085a575.151 575.151 0 0 1-14.774-49.142l781.316-451.095a576.018 576.018 0 0 0-71.32-58.889zm131.619 127.706L562.554 781.127l-155.556 89.811-236.034 136.274a581.113 581.113 0 0 0 30.659 61.169c11.552 20.015 24.156 39.053 37.64 57.135l391.596-226.085a589.923 589.923 0 0 1-28.212-41.383l818.67-472.66c-2.883-5.38-1.587-3.39-8.903-16.059-7.316-12.669-24.156-39.047-37.645-57.134zm82.93 155.819l-801.665 462.84-160.828 92.858-230.763 133.228a574.66 574.66 0 0 0 106.449 96.282l391.59-226.085a576.151 576.151 0 0 1-42.758-32.99l760.946-439.333a574.74 574.74 0 0 0-22.971-86.8zm32.3 185.047a580.476 580.476 0 0 1-8.638 105.055l-585.923 338.286a584.178 584.178 0 0 0 65.703 19.738l-391.59 226.085c-56.381-13.378-110.733-35.155-160.998-64.789l174.854-100.954 216.736-125.131 689.856-398.29zm-324.587 474.515c-45.396 60.283-103.396 112.623-172.863 152.732-114.035 65.835-241.178 88.43-362.46 72.923l391.591-226.085c47.397 6.062 95.681 6.323 143.732.43z"></path></g></svg></svg> <!----></g></g> <g transform="translate(67,0)"><g data-gra="path-name" fill-rule="" class="tp-name iconsvg-namesvg" transform="translate(0,0)"><g transform="scale(1)"><g><path d="M4.22-37.66L4.22-37.66 4.61-37.92Q10.59-37 12.04-33.97L12.04-33.97Q12.96-32.12 11.71-30.76 10.46-29.4 8.57-30.28L8.57-30.28Q8.26-30.45 7.91-30.67L7.91-30.67Q7.25-34.01 4.22-37.66ZM1.19-27.29L1.19-27.29 1.58-27.55Q7.29-26.72 8.57-23.82L8.57-23.82Q9.4-22.06 8.17-20.74L8.17-20.74Q6.94-19.42 5.14-20.3L5.14-20.3Q4.79-20.48 4.48-20.74L4.48-20.74Q4.26-22.41 3.32-24.21 2.37-26.02 1.19-27.29ZM13.49-30.54L13.49-30.54 14.28-30.37Q10.15-16.35 9.23-12.13L9.23-12.13Q8.66-9.4 8.7-7.91L8.7-7.91Q8.7-7.03 9.58-4.55 10.46-2.07 10.37 0.22L10.37 0.22Q10.33 1.89 9.34 2.92 8.35 3.96 6.77 3.96L6.77 3.96Q4.92 3.96 4.48 1.63L4.48 1.63Q5.1-1.98 4.99-4.77 4.88-7.56 4.04-8.09L4.04-8.09Q3.25-8.7 1.76-8.83L1.76-8.83 1.76-9.67 3.74-9.67Q4.09-9.67 4.26-9.71 4.44-9.76 4.64-9.95 4.83-10.15 5.05-10.63L5.05-10.63Q5.98-12.52 13.49-30.54ZM23.95-23.25L23.95-23.25 24.39-23.55Q29.36-22.41 30.28-19.73L30.28-19.73Q30.89-18.06 29.66-17.01L29.66-17.01Q28.39-15.91 26.81-17.01L26.81-17.01Q26.67-17.09 26.54-17.18L26.54-17.18Q26.24-20.04 23.95-23.25ZM22.9-13.32L22.9-13.32 23.25-13.58Q28.78-12.79 30.1-10.02L30.1-10.02Q30.85-8.35 29.75-7.21L29.75-7.21Q28.56-5.93 26.81-6.86L26.81-6.86Q26.63-6.94 26.46-7.08L26.46-7.08Q25.8-10.06 22.9-13.32ZM19.38-5.58L19.38-5.58 32.78-5.58Q33.35-8.88 33.66-14.28L33.66-14.28 20.74-14.28Q20.21-10.85 19.38-5.58ZM34.01-24.04L34.01-24.04 22.06-24.04Q21.93-23.03 20.92-15.56L20.92-15.56 33.75-15.56Q33.97-22.24 34.01-24.04ZM37.66-5.63L37.66-5.63 39.95-9.18Q42.67-6.68 44.21-5.05L44.21-5.05Q43.99-4.31 43.02-4.31L43.02-4.31 37.49-4.31Q36.74 0.18 35.2 1.71L35.2 1.71Q33.09 3.82 29.27 3.82L29.27 3.82Q29.27 1.36 28.39 0.48L28.39 0.48Q27.38-0.7 24.26-1.27L24.26-1.27 24.26-1.89Q28.56-1.58 29.93-1.58L29.93-1.58Q31.2-1.58 31.68-2.18 32.17-2.77 32.52-4.31L32.52-4.31 19.2-4.31Q18.98-3.08 18.63-0.97L18.63-0.97Q16.88 0 13.71-0.7L13.71-0.7Q15.12-7.95 16.08-14.28L16.08-14.28 12.39-14.28 12-15.56 16.26-15.56Q17.23-22.72 17.45-24.48L17.45-24.48Q15.38-22.41 12.92-20.7L12.92-20.7 12.39-21.09Q17.31-27.86 19.6-38.23L19.6-38.23 26.37-35.99Q26.06-35.02 24.57-35.16L24.57-35.16Q23.73-33.27 22.5-31.16L22.5-31.16 35.9-31.16 38.63-34.8Q41.62-32.3 43.37-30.59L43.37-30.59Q43.24-29.88 42.14-29.88L42.14-29.88 21.75-29.88Q21.23-29.05 19.56-26.85L19.56-26.85 23.03-25.36 33.57-25.36 36.12-27.99 40.65-24.08Q40.08-23.42 38.76-23.25L38.76-23.25Q38.72-18.98 38.54-15.56L38.54-15.56 40.61-18.81Q43.02-16.57 44.38-14.99L44.38-14.99Q44.25-14.28 43.2-14.28L43.2-14.28 38.41-14.28Q38.14-8.66 37.66-5.63ZM78.09-7.56L78.09-7.56 69.7-7.56 69.7 1.58Q69.65 1.71 69.19 1.96 68.73 2.2 67.7 2.44 66.67 2.68 65.48 2.68L65.48 2.68 64.56 2.68 64.56-7.56 56.47-7.56 56.12-8.88 64.56-8.88 64.56-14.33 56.87-14.33 56.51-15.56 68.55-15.56Q69.83-19.38 70.58-23.38L70.58-23.38 76.64-21.71Q76.33-20.79 74.93-20.83L74.93-20.83Q72.25-17.71 69.87-15.56L69.87-15.56 72.77-15.56 74.93-18.19Q77.43-16.39 79.01-15.03L79.01-15.03Q78.84-14.33 77.78-14.33L77.78-14.33 69.7-14.33 69.7-8.88 72.47-8.88 74.84-11.87Q77.61-9.76 79.32-8.26L79.32-8.26Q79.15-7.56 78.09-7.56ZM58.8-23.03L58.8-23.03 59.24-23.25Q64.38-22.1 65.3-19.34L65.3-19.34Q65.87-17.62 64.6-16.52L64.6-16.52Q63.24-15.34 61.52-16.44L61.52-16.44Q61.26-16.57 61.04-16.79L61.04-16.79Q61-19.91 58.8-23.03ZM87.36-30.54L87.36-30.54 69.96-30.54 69.96-25.18 79.85-25.18 82.27-27.95 87.41-23.95Q86.75-23.2 85.56-23.03L85.56-23.03 85.56-1.98Q85.56 0.92 84.22 2.31 82.88 3.69 78.62 4.04L78.62 4.04Q78.4 1.36 77.52 0.44L77.52 0.44Q76.16-0.92 73.43-1.32L73.43-1.32 73.43-1.93Q78.09-1.58 79.28-1.58L79.28-1.58Q80.29-1.58 80.29-2.5L80.29-2.5 80.29-23.91 54.8-23.91 54.8 2.11Q54.8 2.64 53.37 3.32 51.94 4 50.41 4L50.41 4 49.53 4 49.53-27.51 55.2-25.18 64.6-25.18 64.6-30.54 46.8-30.54 46.45-31.82 64.6-31.82 64.6-38.1 71.63-37.53Q71.5-36.47 69.96-36.25L69.96-36.25 69.96-31.82 79.85-31.82 82.92-35.73Q86.44-33.13 88.64-31.29L88.64-31.29Q88.42-30.54 87.36-30.54ZM100.15-30.41L100.15-30.41 100.72-30.45Q102.35-26.81 102.57-23.6 102.79-20.39 102.04-18.41 101.29-16.44 99.89-15.21L99.89-15.21Q98.53-13.93 96.9-14.04 95.27-14.15 94.44-15.47L94.44-15.47Q93.87-16.74 94.24-17.84 94.61-18.94 95.71-19.78L95.71-19.78Q97.65-21.09 99.01-24.02 100.37-26.94 100.15-30.41ZM125.55-30.28L125.55-30.28 132.1-26.19Q131.66-25.44 130.39-25.66L130.39-25.66Q123.66-19.69 117.25-16.3L117.25-16.3Q119.44-10.94 123.46-7.4 127.49-3.87 134.12-1.67L134.12-1.67 134.03-1.19Q132.1-0.83 130.83 0.51 129.55 1.85 129.16 3.96L129.16 3.96Q125.16 2.07 122.34-0.64 119.53-3.34 117.77-7.03 116.02-10.72 115.05-14.9 114.08-19.07 113.6-24.65L113.6-24.65Q113.33-20.52 112.74-17.38 112.15-14.24 110.68-10.94 109.2-7.65 106.85-5.12 104.5-2.59 100.68-0.24 96.86 2.11 91.63 3.96L91.63 3.96 91.23 3.3Q94 1.76 96.26 0.09 98.53-1.58 100.17-3.32 101.82-5.05 103.1-6.97 104.37-8.88 105.21-10.88 106.04-12.88 106.61-15.05 107.18-17.23 107.45-19.49 107.71-21.75 107.86-24.24 108.02-26.72 108.02-29.33 108.02-31.95 108.02-34.76L108.02-34.76Q108.02-36.87 108.02-37.97L108.02-37.97 115.62-37.31Q115.4-36.21 113.91-35.99L113.91-35.99 113.91-35.33Q114.48-23.6 116.94-17.05L116.94-17.05Q119.31-20 121.77-23.77 124.23-27.55 125.55-30.28ZM146.56-13.67L146.56-13.67 153.24-9.8Q152.75-8.96 151.26-9.27L151.26-9.27Q145.59-1.93 136.54 1.89L136.54 1.89 136.14 1.45Q139-1.23 141.83-5.3 144.67-9.36 146.56-13.67ZM164.75-12.83L164.75-12.83 165.15-13.14Q173.85-10.72 176.75-5.93L176.75-5.93Q178.46-3.08 177.36-0.97L177.36-0.97Q176.48 0.75 174.55 0.35L174.55 0.35Q173.76 0.22 172.97-0.31L172.97-0.31Q171.04-6.02 164.75-12.83ZM153.19-30.1L169.01-30.1 172.31-34.32Q176.04-31.51 178.24-29.58L178.24-29.58Q178.11-28.83 176.97-28.83L176.97-28.83 152.62-28.83Q147.52-17.97 147.3-17.58L147.3-17.58 155.87-17.58 155.87-25.62 162.82-24.96Q162.69-24.08 161.37-23.91L161.37-23.91 161.37-17.58 167.08-17.58 170.24-21.62Q173.8-18.94 175.96-17.01L175.96-17.01Q175.78-16.3 174.64-16.3L174.64-16.3 161.37-16.3 161.37-2.24Q161.37 0.75 160.03 2.15 158.69 3.56 154.38 3.91L154.38 3.91Q154.16 1.19 153.33 0.31L153.33 0.31Q152.27-0.97 149.5-1.45L149.5-1.45 149.5-2.02Q153.98-1.76 154.95-1.76L154.95-1.76Q155.87-1.76 155.87-2.46L155.87-2.46 155.87-16.3 146.95-16.3 145.28-14.59 140.19-17.84Q141.02-18.5 141.94-18.94L141.94-18.94Q143.75-22.1 146.78-28.83L146.78-28.83 137.15-28.83 136.8-30.1 147.35-30.1Q149.72-35.46 150.64-38.41L150.64-38.41 157.59-36.3Q157.15-35.29 155.61-35.51L155.61-35.51Q154.51-32.92 153.19-30.1L153.19-30.1Z" transform="translate(-1.190000057220459, 38.40999984741211)"></path></g> <!----> <!----> <!----> <!----> <!----> <!----> <!----></g></g> <g data-gra="path-slogan" fill-rule="" class="tp-slogan iconsvg-slogansvg" fill="#00a5a9" transform="translate(5,48.45000076293945)"><rect x="0" height="1" y="3.9750003814697266" width="25.94000244140625"></rect> <rect height="1" y="3.9750003814697266" width="25.94000244140625" x="141.11000061035156"></rect> <g transform="translate(28.94000244140625,0)"><g transform="scale(1)"><path d="M2.06-5.06L6.56-5.06L6.56-8.58L7.73-8.58L7.73 0L6.56 0L6.56-3.98L2.06-3.98L2.06 0L0.89 0L0.89-8.58L2.06-8.58L2.06-5.06ZM15.19 0L14.34-2.48L10.88-2.48L9.98 0L8.81 0L12.05-8.58L13.36-8.58L16.45 0L15.19 0ZM12.61-7.31L11.25-3.52L13.92-3.52L12.66-7.31L12.61-7.31ZM17.67-8.58L18.84-8.58L18.84 0L17.67 0L17.67-8.58ZM22.22-8.58L26.53-1.64L26.53-8.58L27.66-8.58L27.66 0L26.34 0L21.98-6.94L21.94-6.94L21.94 0L20.81 0L20.81-8.58L22.22-8.58ZM35.11 0L34.27-2.48L30.80-2.48L29.91 0L28.73 0L31.97-8.58L33.28-8.58L36.38 0L35.11 0ZM32.53-7.31L31.17-3.52L33.84-3.52L32.58-7.31L32.53-7.31ZM38.81-8.58L43.13-1.64L43.13-8.58L44.25-8.58L44.25 0L42.94 0L38.58-6.94L38.53-6.94L38.53 0L37.41 0L37.41-8.58L38.81-8.58ZM50.53-5.06L55.03-5.06L55.03-8.58L56.20-8.58L56.20 0L55.03 0L55.03-3.98L50.53-3.98L50.53 0L49.36 0L49.36-8.58L50.53-8.58L50.53-5.06ZM63.66-3.19L63.66-8.58L64.83-8.58L64.83-3.05Q64.69 0.05 61.31 0.14L61.31 0.14Q58.17 0.05 58.03-2.86L58.03-2.86L58.03-8.58L59.20-8.58L59.20-3.19Q59.25-0.84 61.36-0.80L61.36-0.80Q63.66-0.84 63.66-3.19L63.66-3.19ZM73.41-4.27L73.41-4.27Q73.22-7.64 70.41-7.83L70.41-7.83Q67.55-7.69 67.41-4.27L67.41-4.27Q67.55-0.94 70.41-0.80L70.41-0.80Q73.22-0.98 73.41-4.27ZM74.58-4.27L74.58-4.27Q74.30 0 70.41 0.14L70.41 0.14Q66.47 0 66.19-4.27L66.19-4.27Q66.42-8.72 70.41-8.81L70.41-8.81Q74.30-8.67 74.58-4.27ZM79.45 0L75.98 0L75.98-8.58L79.50-8.58Q82.97-8.39 83.11-4.41L83.11-4.41Q82.92-0.09 79.45 0L79.45 0ZM79.31-7.64L77.16-7.64L77.16-0.98L79.41-0.98Q81.84-1.13 81.94-4.31L81.94-4.31Q81.89-7.55 79.31-7.64L79.31-7.64ZM91.36-4.27L91.36-4.27Q91.17-7.64 88.36-7.83L88.36-7.83Q85.50-7.69 85.36-4.27L85.36-4.27Q85.50-0.94 88.36-0.80L88.36-0.80Q91.17-0.98 91.36-4.27ZM92.53-4.27L92.53-4.27Q92.25 0 88.36 0.14L88.36 0.14Q84.42 0 84.14-4.27L84.14-4.27Q84.38-8.72 88.36-8.81L88.36-8.81Q92.25-8.67 92.53-4.27ZM95.30-8.58L99.61-1.64L99.61-8.58L100.73-8.58L100.73 0L99.42 0L95.06-6.94L95.02-6.94L95.02 0L93.89 0L93.89-8.58L95.30-8.58ZM108.94-3.61L106.31-3.61L106.31-4.59L110.06-4.59L110.06 0L109.31 0L109.03-1.08Q108.05 0.09 106.22 0.14L106.22 0.14Q104.48 0.14 103.55-0.75L103.55-0.75Q102.14-2.06 102.19-4.36L102.19-4.36Q102.52-8.63 106.27-8.81L106.27-8.81Q109.45-8.63 109.92-6L109.92-6L108.80-6Q108.33-7.78 106.22-7.83L106.22-7.83Q103.55-7.64 103.41-4.31L103.41-4.31Q103.41-0.75 106.27-0.75L106.27-0.75Q107.30-0.75 108.05-1.31L108.05-1.31Q108.98-2.06 108.94-3.61L108.94-3.61Z" transform="translate(-0.890625, 8.8125)"></path></g></g></g></g></g><defs v-gra="od"></defs></svg>